<?xml version="1.0" encoding="UTF-8"?>
<svg version="1.1" xmlns="http://www.w3.org/2000/svg" width="448" height="363">
<!-- <path d="M0 0 C147.84 0 295.68 0 448 0 C448 119.79 448 239.58 448 363 C300.16 363 152.32 363 0 363 C0 243.21 0 123.42 0 0 Z " fill="#060903" transform="translate(0,0)"/> -->
<path d="M0 0 C0.99 0 1.98 0 3 0 C4.70122014 2.40829921 6.20472918 4.77417816 7.6875 7.3125 C8.57889 8.78966056 9.47344437 10.26491604 10.37109375 11.73828125 C10.81437012 12.46611816 11.25764648 13.19395508 11.71435547 13.94384766 C14.55140868 18.4811933 17.77948172 22.73159073 21 27 C21.52207031 27.71542969 22.04414063 28.43085937 22.58203125 29.16796875 C25.56100268 33.23163162 28.72905873 37.0407199 32.0859375 40.796875 C34.2828862 43.3256078 36.35284872 45.94056746 38.4375 48.5625 C41.69095933 52.56464033 45.01612601 55.98155409 48.98046875 59.265625 C51.22308017 61.19158142 53.25375506 63.25409047 55.3125 65.375 C59.29715771 69.40725601 63.52251115 72.97388681 67.9375 76.5234375 C71.55850062 79.45164464 75.13264707 82.42954752 78.6875 85.4375 C79.31229248 85.95803955 79.93708496 86.4785791 80.58081055 87.01489258 C82.09245468 88.29918679 83.55167265 89.6447039 85 91 C85 91.66 85 92.32 85 93 C85.84820312 93.21140625 86.69640625 93.4228125 87.5703125 93.640625 C91.81624704 95.32352388 94.52762562 97.71036662 97.875 100.75 C99.10238726 101.83794828 100.33154356 102.92390421 101.5625 104.0078125 C102.44421875 104.78560059 102.44421875 104.78560059 103.34375 105.57910156 C105.44041271 107.37783048 107.63152118 109.0145027 109.875 110.625 C110.90625 111.40875 111.9375 112.1925 113 113 C113 113.66 113 114.32 113 115 C113.556875 115.2475 114.11375 115.495 114.6875 115.75 C127.81095675 122.84376041 137.98197637 137.58346311 146.4921875 149.5546875 C148.84222628 152.84400221 151.37651961 155.92516815 154 159 C157.70569496 156.21910062 160.56080039 153.3128594 163.4375 149.6875 C164.21351563 148.72070312 164.98953125 147.75390625 165.7890625 146.7578125 C166.51867187 145.84773437 167.24828125 144.93765625 168 144 C171.19255409 140.16049663 174.46882712 136.53117288 178 133 C178.5775 132.236875 179.155 131.47375 179.75 130.6875 C181.60282324 128.47440558 183.23531458 126.9301457 185.4375 125.125 C192.59313654 119.03595834 199.39360692 111.34154447 204.65625 103.546875 C205.0996875 103.03640625 205.543125 102.5259375 206 102 C207.8253125 101.9690625 207.8253125 101.9690625 209.6875 101.9375 C212.91238273 101.70167677 213.79848568 101.22139291 216.01953125 98.78125 C217.36437693 96.85018953 218.68400678 94.90137138 219.98046875 92.9375 C223.51162123 87.80127821 227.81631812 83.45578792 233 80 C233.99 80 234.98 80 236 80 C236 82.31 236 84.62 236 87 C236.66 87 237.32 87 238 87 C238.27199219 86.2678125 238.54398437 85.535625 238.82421875 84.78125 C241.45590965 78.55612069 245.60810715 72.14760988 251 68 C253.8125 68.1875 253.8125 68.1875 256 69 C256.33 70.32 256.66 71.64 257 73 C257.40089844 72.3709375 257.80179687 71.741875 258.21484375 71.09375 C262.26118344 65.00130203 266.67352756 58.89411335 273 55 C275.26953125 55.29296875 275.26953125 55.29296875 277 56 C276.29896928 60.27079308 274.92066378 64.18079953 273.3828125 68.20703125 C273.12498993 68.89125656 272.86716736 69.57548187 272.60153198 70.28044128 C271.77963306 72.45917915 270.95242834 74.63585686 270.125 76.8125 C269.57646676 78.26353729 269.02828628 79.71470798 268.48046875 81.16601562 C267.23037437 84.47626423 265.97659817 87.78509334 264.71992493 91.09284973 C264.21497765 92.43050355 263.71471639 93.76993123 263.21794128 95.11064148 C257.99271963 109.2025419 250.89448596 120.62639519 240 131 C239.11054688 131.85078125 238.22109375 132.7015625 237.3046875 133.578125 C231.40887238 139 231.40887238 139 229 139 C229 139.66 229 140.32 229 141 C228.154375 141.515625 227.30875 142.03125 226.4375 142.5625 C220.08046065 146.57509931 215.99101693 153.7740136 212 160 C212.58007812 160.02578125 213.16015625 160.0515625 213.7578125 160.078125 C219.23957134 160.47614049 222.66274312 161.36880819 227 165 C227.556875 165.886875 228.11375 166.77375 228.6875 167.6875 C231.94817534 170.94817534 234.70205749 170.48997257 239.16796875 170.69921875 C243.26933772 171.13481242 246.66763135 172.57797767 250 175 C250.66 175.99 251.32 176.98 252 178 C251.35933594 178.25394531 250.71867187 178.50789062 250.05859375 178.76953125 C248.25793199 179.48603899 246.46257024 180.21596669 244.671875 180.95703125 C242 182 242 182 238.1875 183 C233.74476715 185.78759708 233.08462394 189.12598833 231.2890625 193.921875 C227.9481861 201.89948289 222.76753273 205.56947818 214.96875 208.8046875 C213.9890625 209.19914063 213.009375 209.59359375 212 210 C201.62132739 214.429282 195.75542384 219.6707703 189.3125 228.8125 C180.75699131 240.32688435 169.60622088 247.62254723 157 254 C156.33057373 254.35553955 155.66114746 254.7110791 154.97143555 255.07739258 C150.845639 257.23377865 147.02580357 258.71354108 142.4375 259.6875 C141.38433594 259.91824219 140.33117187 260.14898437 139.24609375 260.38671875 C123.05053162 263.44653013 106.36595477 261.85860178 90 261 C90 261.66 90 262.32 90 263 C89.39414063 263.18433594 88.78828125 263.36867188 88.1640625 263.55859375 C80.53511 266.199385 75.64139584 270.37933188 70 276 C68.61202783 277.36202876 67.22400268 278.72400353 65.8359375 280.0859375 C59.54543477 286.29882173 53.31560182 292.49534135 47.55029297 299.20483398 C45.14332179 301.9919929 42.75812666 304.54833186 40 307 C36 307 36 307 33.8125 304.875 C31.87482933 301.80145342 31.33365001 299.58673761 31 296 C30.46503906 296.15984375 29.93007812 296.3196875 29.37890625 296.484375 C26.52681331 297.10256263 23.85520286 297.20661408 20.9375 297.25 C19.89464844 297.27578125 18.85179687 297.3015625 17.77734375 297.328125 C15 297 15 297 13.140625 295.68359375 C11.4356265 293.16696925 11.80303171 290.95452431 12 288 C10.205625 288.0928125 10.205625 288.0928125 8.375 288.1875 C4.24629518 288.1948204 1.5475016 287.19607242 -2 285 C-4 283 -4 283 -4.1875 280 C-4 277 -4 277 -3 275 C-3.58007812 274.98582031 -4.16015625 274.97164063 -4.7578125 274.95703125 C-10.85755082 274.58460498 -13.67989602 273.32010398 -18 269 C-18 266.6875 -18 266.6875 -17 264 C-10.26724188 260.93351167 -3.01682591 259.33275274 4.1340332 257.52050781 C6.16673735 257.00526287 8.1977353 256.48370776 10.22851562 255.9609375 C17.5498222 254.08454697 24.88612171 252.30592711 32.26660156 250.67431641 C35.99542009 249.75443459 39.43646465 248.42541414 43 247 C46.71324934 245.90872948 50.13278224 245.92563043 54 246 C54 245.34 54 244.68 54 244 C54.75023437 243.74347656 55.50046875 243.48695313 56.2734375 243.22265625 C70.39083956 237.94196556 78.97879314 227.96222805 86 215 C85.27554688 214.97421875 84.55109375 214.9484375 83.8046875 214.921875 C73.30594901 214.30594901 73.30594901 214.30594901 69 210 C68.66073053 207.66752239 68.32759934 205.33414529 68 203 C66.989375 202.175 65.97875 201.35 64.9375 200.5 C62 198 62 198 61.5 194.5 C61.95402126 191.32185119 62.60577944 188.87557991 64 186 C62.7625 185.6596875 62.7625 185.6596875 61.5 185.3125 C56.7854964 183.54456115 51.582575 181.41809596 48.7421875 177.078125 C48 175 48 175 48.375 171.125 C48.51781988 169.0079751 48.51781988 169.0079751 48 167 C46.23475363 165.22572424 44.34560725 164.00303998 42.24609375 162.64453125 C38.39316619 159.8235182 35.56287971 156.00449954 33 152 C33 151.34 33 150.68 33 150 C32.34 150 31.68 150 31 150 C31 148.02 31 146.04 31 144 C32.98 143.01 32.98 143.01 35 142 C31.29486866 139.11288467 27.72813126 136.38392376 23.5625 134.1875 C17.66957252 130.98305096 12.68690764 125.53036147 9 120 C8.875 117.3125 8.875 117.3125 9 115 C12.465 114.01 12.465 114.01 16 113 C15.4225 112.59007812 14.845 112.18015625 14.25 111.7578125 C13.5075 111.21898437 12.765 110.68015625 12 110.125 C11.2575 109.59132813 10.515 109.05765625 9.75 108.5078125 C9.1725 108.01023437 8.595 107.51265625 8 107 C8 106.34 8 105.68 8 105 C7.10667969 104.85498047 7.10667969 104.85498047 6.1953125 104.70703125 C3.542899 103.8527842 2.62528107 102.82724152 0.875 100.6875 C0.37742187 100.09324219 -0.12015625 99.49898438 -0.6328125 98.88671875 C-2.04201396 96.94202074 -3.15485802 95.25225983 -4 93 C-3.625 90.75 -3.625 90.75 -3 89 C-1.56260487 88.97287934 -0.12506137 88.95354933 1.3125 88.9375 C2.51326172 88.92009766 2.51326172 88.92009766 3.73828125 88.90234375 C6 89 6 89 9 90 C9 89.34 9 88.68 9 88 C8.319375 87.835 7.63875 87.67 6.9375 87.5 C2.5689617 85.26925704 0.08143832 81.74272043 -3 78 C-3.54140625 77.40574219 -4.0828125 76.81148438 -4.640625 76.19921875 C-8.24339109 72.24163478 -11.31223454 68.13854708 -13 63 C-12.75 60 -12.75 60 -12 58 C-5.97229862 58.47587116 -1.23321711 61.19722957 4 64 C3.45730469 63.26394531 2.91460937 62.52789062 2.35546875 61.76953125 C1.64003906 60.79371094 0.92460938 59.81789062 0.1875 58.8125 C-0.52019531 57.84957031 -1.22789063 56.88664062 -1.95703125 55.89453125 C-7.21498118 48.44493107 -10.75689652 40.33505712 -10 31 C-6.7019946 30.61678106 -5.39602593 30.69484304 -2.71875 32.7578125 C-1.62046875 33.92957031 -1.62046875 33.92957031 -0.5 35.125 C0.27472656 35.94226563 1.04945312 36.75953125 1.84765625 37.6015625 C3.58635599 39.53906094 5.28485806 41.48936738 6.9375 43.5 C8.75403019 46.04590598 8.75403019 46.04590598 11 47 C10.54109375 45.97261719 10.0821875 44.94523437 9.609375 43.88671875 C-1.14989646 19.65050699 -1.14989646 19.65050699 -1.125 7.75 C-1.12886719 5.88601562 -1.12886719 5.88601562 -1.1328125 3.984375 C-1 1 -1 1 0 0 Z " fill="#81B857" transform="translate(106,30)"/>
<path d="M0 0 C5 6.36363636 5 6.36363636 5 11 C1.83884224 9.63016497 1.0072908 9.0109362 -1 6 C-0.625 2.8125 -0.625 2.8125 0 0 Z " fill="#314D1F" transform="translate(112,66)"/>
<path d="M0 0 C1.32 0.33 2.64 0.66 4 1 C3.319375 1.33 2.63875 1.66 1.9375 2 C-2.08874752 4.74127491 -4.91824052 8.26103533 -8 12 C-8 8.03869629 -6.65122875 7.17085599 -4 4.3125 C-3.2575 3.50425781 -2.515 2.69601563 -1.75 1.86328125 C-1.1725 1.24839844 -0.595 0.63351563 0 0 Z " fill="#6E9D49" transform="translate(357,98)"/>
<path d="M0 0 C1.32 0.66 2.64 1.32 4 2 C4 2.66 4 3.32 4 4 C3.15695313 3.96519531 2.31390625 3.93039063 1.4453125 3.89453125 C-0.19824219 3.85392578 -0.19824219 3.85392578 -1.875 3.8125 C-2.96554688 3.77769531 -4.05609375 3.74289063 -5.1796875 3.70703125 C-6.57574219 3.85205078 -6.57574219 3.85205078 -8 4 C-8.66 4.99 -9.32 5.98 -10 7 C-10.5625 5.0625 -10.5625 5.0625 -11 3 C-10 2 -10 2 -7.71484375 1.90234375 C-6.34005859 1.91974609 -6.34005859 1.91974609 -4.9375 1.9375 C-4.01839844 1.94652344 -3.09929687 1.95554687 -2.15234375 1.96484375 C-1.44207031 1.97644531 -0.73179688 1.98804687 0 2 C0 1.34 0 0.68 0 0 Z " fill="#365222" transform="translate(111,116)"/>
<path d="M0 0 C0.66 0 1.32 0 2 0 C2.625 2.8125 2.625 2.8125 3 6 C2.01 7.485 2.01 7.485 1 9 C1 8.34 1 7.68 1 7 C0.34 7 -0.32 7 -1 7 C-1.04254356 5.00045254 -1.04080783 2.99958364 -1 1 C-0.67 0.67 -0.34 0.34 0 0 Z " fill="#5A863D" transform="translate(138,173)"/>
<path d="M0 0 C0 0.66 0 1.32 0 2 C-4.61073111 3.29676812 -8.33840089 2.71109139 -13 2 C-13 1.67 -13 1.34 -13 1 C-11.58366664 0.83052421 -10.16691467 0.66454493 -8.75 0.5 C-7.56664062 0.36078125 -7.56664062 0.36078125 -6.359375 0.21875 C-4 0 -4 0 0 0 Z " fill="#334C21" transform="translate(137,326)"/>
<path d="M0 0 C0.66 0.33 1.32 0.66 2 1 C1.67 2.65 1.34 4.3 1 6 C0.01 6 -0.98 6 -2 6 C-1.125 1.125 -1.125 1.125 0 0 Z " fill="#6C9C4A" transform="translate(90,293)"/>
<path d="M0 0 C2.95183101 2.95183101 3.08663988 5.95511947 4 10 C0.9083091 7.47043472 0.09068668 4.77545388 -1 1 C-0.67 0.67 -0.34 0.34 0 0 Z " fill="#273B1A" transform="translate(108,56)"/>
<path d="M0 0 C1.98 0.99 1.98 0.99 4 2 C4 2.99 4 3.98 4 5 C2.68 4.67 1.36 4.34 0 4 C0 2.68 0 1.36 0 0 Z " fill="#74A751" transform="translate(353,204)"/>
<path d="M0 0 C1.98 0.99 3.96 1.98 6 3 C6 3.33 6 3.66 6 4 C3.36 4 0.72 4 -2 4 C-1.34 2.68 -0.68 1.36 0 0 Z " fill="#3E5D25" transform="translate(118,140)"/>
</svg>
