<?xml version="1.0" encoding="UTF-8"?>
<svg version="1.1" xmlns="http://www.w3.org/2000/svg" width="448" height="363">
<!-- <path d="M0 0 C147.84 0 295.68 0 448 0 C448 119.79 448 239.58 448 363 C300.16 363 152.32 363 0 363 C0 243.21 0 123.42 0 0 Z " fill="#060903" transform="translate(0,0)"/> -->
<path d="M0 0 C1.98 0.495 1.98 0.495 4 1 C4.88159754 17.33404323 -0.46041802 32.60298869 -8 47 C-5.38080345 44.40452806 -2.80631539 41.79379268 -0.28125 39.10546875 C0.64576922 38.1327514 1.57285291 37.16009548 2.5 36.1875 C2.96019531 35.68541016 3.42039062 35.18332031 3.89453125 34.66601562 C6.20747973 32.2716253 7.47718685 31.05960644 10.84375 30.67578125 C11.91109375 30.83626953 11.91109375 30.83626953 13 31 C12.68049906 44.12858425 7.01181554 53.90073872 -1 64 C-0.18015625 63.566875 0.6396875 63.13375 1.484375 62.6875 C2.56203125 62.130625 3.6396875 61.57375 4.75 61 C5.81734375 60.443125 6.8846875 59.88625 7.984375 59.3125 C11 58 11 58 15 58 C15.80978422 65.61197164 12.75413994 70.52763465 8.09765625 76.3984375 C4.38361356 80.68990333 0.57072249 84.6263715 -4 88 C-4.66 88 -5.32 88 -6 88 C-6 88.66 -6 89.32 -6 90 C-4.515 89.505 -4.515 89.505 -3 89 C-1.43881572 88.93259135 0.1250252 88.91485544 1.6875 88.9375 C2.49574219 88.94652344 3.30398438 88.95554687 4.13671875 88.96484375 C4.75160156 88.97644531 5.36648438 88.98804687 6 89 C6.60546875 90.81640625 6.60546875 90.81640625 7 93 C5.3125 95.9375 5.3125 95.9375 3 99 C2.43152344 99.78890625 1.86304688 100.5778125 1.27734375 101.390625 C-1.42804398 104.49045176 -4.33764142 106.5588434 -7.75 108.8125 C-8.35199219 109.21919922 -8.95398438 109.62589844 -9.57421875 110.04492188 C-11.04477191 111.0369617 -12.52174159 112.01947888 -14 113 C-12.2984375 113.2165625 -12.2984375 113.2165625 -10.5625 113.4375 C-7 114 -7 114 -6 115 C-5.54023238 118.31607393 -5.77371839 119.66948219 -7.6875 122.46484375 C-12.4676749 127.57607806 -17.18472998 132.10112578 -23 136 C-23.825 136.55945313 -24.65 137.11890625 -25.5 137.6953125 C-27.65748102 139.14487006 -29.82349619 140.57922668 -32 142 C-31.01 142.66 -30.02 143.32 -29 144 C-28.20135583 147.27444108 -28.55741615 149.24167876 -30.25390625 152.1484375 C-34.34190493 157.70659812 -39.1594473 162.30058678 -45 166 C-45.66 166 -46.32 166 -47 166 C-46.34 166.99 -45.68 167.98 -45 169 C-44.5625 171.875 -44.5625 171.875 -45 175 C-49.19202031 180.33529857 -54.97812871 183.10950178 -61 186 C-60.67 186.680625 -60.34 187.36125 -60 188.0625 C-58.79846973 191.59199518 -58.65679655 194.2934027 -59 198 C-60.375 199.9375 -60.375 199.9375 -62 201 C-62.66 201 -63.32 201 -64 201 C-64.10957031 201.61488281 -64.21914063 202.22976562 -64.33203125 202.86328125 C-64.49058594 203.67152344 -64.64914062 204.47976562 -64.8125 205.3125 C-65.03873047 206.51326172 -65.03873047 206.51326172 -65.26953125 207.73828125 C-66.10510137 210.32542083 -66.8387616 211.37037656 -69 213 C-71.0859375 213.73046875 -71.0859375 213.73046875 -73.375 214.1875 C-74.12523437 214.34605469 -74.87546875 214.50460938 -75.6484375 214.66796875 C-78.12888516 215.01819807 -80.49824735 215.05746075 -83 215 C-75.97757618 228.39297708 -66.64178946 238.72256917 -52.03515625 243.43554688 C-50.84212891 243.80776367 -50.84212891 243.80776367 -49.625 244.1875 C-41.11072664 246.88927336 -41.11072664 246.88927336 -40 248 C-38.69780464 248.3529869 -37.38218045 248.65686497 -36.0625 248.9375 C-35.25296875 249.11152344 -34.4434375 249.28554688 -33.609375 249.46484375 C-30.23188397 250.15753278 -26.84683249 250.80788518 -23.45703125 251.4375 C-21 252 -21 252 -18.26416016 252.92016602 C-14.97045755 254.00977309 -11.66689954 254.94089623 -8.31640625 255.83984375 C-7.05892578 256.18080078 -5.80144531 256.52175781 -4.50585938 256.87304688 C-2.53403779 257.40613723 -0.56184098 257.93767631 1.41137695 258.46557617 C14.97208208 262.09968957 14.97208208 262.09968957 21 265 C21 267.1875 21 267.1875 20 270 C16.46441132 273.12211888 13.21060056 274.89191066 8.5 275.3125 C7.675 275.209375 6.85 275.10625 6 275 C6.33 275.66 6.66 276.32 7 277 C7.45627376 282.36121673 7.45627376 282.36121673 5.75 284.75 C2.21329017 287.27622131 -0.37415078 288.25370145 -4.75 288.125 C-5.54921875 288.10695313 -6.3484375 288.08890625 -7.171875 288.0703125 C-8.07679688 288.03550781 -8.07679688 288.03550781 -9 288 C-8.9175 288.928125 -8.835 289.85625 -8.75 290.8125 C-9 294 -9 294 -10.4375 295.875 C-15.93184742 298.28715253 -22.2672162 297.17595565 -28 296 C-28.061875 296.886875 -28.12375 297.77375 -28.1875 298.6875 C-29.20538912 302.83735563 -30.60214602 304.45160952 -34 307 C-37.82297955 307.01295925 -39.0370041 305.96566786 -41.8671875 303.33984375 C-42.88123229 302.21594689 -43.88337098 301.08122326 -44.875 299.9375 C-45.40528809 299.34549805 -45.93557617 298.75349609 -46.48193359 298.14355469 C-49.24237167 295.05125606 -51.93694035 291.90527002 -54.625 288.75 C-58.07785878 284.72309274 -62.03359696 281.32595432 -66.05859375 277.8828125 C-66.69925781 277.26148438 -67.33992187 276.64015625 -68 276 C-68 275.34 -68 274.68 -68 274 C-68.804375 273.6596875 -68.804375 273.6596875 -69.625 273.3125 C-72.82460161 271.54429911 -75.29037223 269.46329797 -78 267 C-78 266.34 -78 265.68 -78 265 C-84.64357674 263.28391121 -90.56550197 262.76175222 -97.40625 262.91015625 C-99.38671636 262.93057162 -101.36718521 262.95074661 -103.34765625 262.97070312 C-106.42833569 263.0141656 -109.5088391 263.06265437 -112.58935547 263.11645508 C-115.59081382 263.16502004 -118.59203909 263.19469029 -121.59375 263.22265625 C-122.95820251 263.2552932 -122.95820251 263.2552932 -124.35021973 263.28858948 C-130.44874019 263.33536398 -135.34891479 262.25934589 -141 260 C-142.59521484 259.40058594 -142.59521484 259.40058594 -144.22265625 258.7890625 C-149.5363022 256.61097929 -154.40831942 254.31112038 -159.1875 251.125 C-161.01796411 249.98884986 -162.81474994 249.17410002 -164.8125 248.375 C-167.61789691 247.16482879 -169.20757516 246.42504537 -171 244 C-171 243.34 -171 242.68 -171 242 C-171.58716797 241.90033936 -172.17433594 241.80067871 -172.77929688 241.69799805 C-175.42182991 240.86741296 -176.58553972 239.7877071 -178.53125 237.83203125 C-179.17707031 237.18556641 -179.82289063 236.53910156 -180.48828125 235.87304688 C-181.15214844 235.19306641 -181.81601563 234.51308594 -182.5 233.8125 C-183.16386719 233.15185547 -183.82773438 232.49121094 -184.51171875 231.81054688 C-188.18514663 228.09679194 -191.15943561 224.40412066 -194 220 C-197.06559524 216.38299148 -200.58899864 214.44761562 -204.8125 212.4375 C-205.99457031 211.85871094 -207.17664063 211.27992188 -208.39453125 210.68359375 C-210.83132732 209.54571823 -213.23283592 208.49187476 -215.71875 207.484375 C-222.92936751 204.22242899 -227.20306167 198.26612022 -230 191 C-230.20625 189.9275 -230.4125 188.855 -230.625 187.75 C-232.90635865 183.1872827 -237.3714089 182.5520611 -242 181 C-243.38152168 180.43228474 -244.75770166 179.85116389 -246.125 179.25 C-247.07375 178.8375 -248.0225 178.425 -249 178 C-245.02073327 173.67965327 -242.07503082 171.20749196 -236.10546875 170.8046875 C-235.14253906 170.82789063 -234.17960937 170.85109375 -233.1875 170.875 C-232.21167969 170.89304688 -231.23585937 170.91109375 -230.23046875 170.9296875 C-229.49441406 170.95289063 -228.75835937 170.97609375 -228 171 C-227.9175 170.40574219 -227.835 169.81148437 -227.75 169.19921875 C-226.28065949 164.89068381 -221.91171774 162.92311237 -218 161 C-214.89938705 160.27730074 -212.2054538 160.10176044 -209 160 C-214.66503269 149.34973854 -222.48204643 142.94556315 -231.8984375 135.80078125 C-247.51435682 123.69732516 -257.54955471 106.60604326 -263.1484375 87.7734375 C-264.6976407 82.72786743 -266.66570263 77.8358073 -268.60546875 72.9296875 C-269.1328125 71.578125 -269.66015625 70.2265625 -270.1875 68.875 C-270.59645508 67.85986328 -270.59645508 67.85986328 -271.01367188 66.82421875 C-272.59502219 62.7261831 -273.30759656 59.38837753 -273 55 C-265.716673 56.30809199 -261.03137811 62.68072477 -257 68.4375 C-255.98932329 69.9512591 -254.98534729 71.46963248 -254 73 C-253.34 71.35 -252.68 69.7 -252 68 C-246.35280486 68.60891495 -244.38758032 71.40628476 -240.87109375 75.57421875 C-235 83.18580376 -235 83.18580376 -235 87 C-234.34 87 -233.68 87 -233 87 C-233 84.69 -233 82.38 -233 80 C-225.55010688 81.29131481 -219.24299633 89.07486903 -215 95 C-213.51289103 97.62322328 -212.25362133 100.25167631 -211 103 C-210.12085938 102.74605469 -209.24171875 102.49210937 -208.3359375 102.23046875 C-205 102 -205 102 -202.2265625 103.80078125 C-201.36804688 104.62964844 -200.50953125 105.45851563 -199.625 106.3125 C-198.75101562 107.13363281 -197.87703125 107.95476562 -196.9765625 108.80078125 C-195 111 -195 111 -195 113 C-193.515 113.495 -193.515 113.495 -192 114 C-190.81640625 115.42578125 -190.81640625 115.42578125 -189.5625 117.3125 C-186.72415659 121.2648932 -183.52545726 124.60584322 -180.0625 128 C-176.13476954 131.85533817 -172.3528349 135.74048305 -168.78125 139.93359375 C-166.53010979 142.54511387 -164.20274507 145.0815962 -161.875 147.625 C-158.48220812 151.34362403 -155.17001164 155.09031898 -152 159 C-144.46502418 151.5976044 -137.53346022 143.08994657 -131.875 134.1875 C-129.35873557 130.27867279 -126.6265927 127.86753842 -123 125 C-122.67 124.01 -122.34 123.02 -122 122 C-120 121 -118 120 -116 119 C-111.26370329 115.57385395 -111.26370329 115.57385395 -107.984375 110.87109375 C-107 109 -107 109 -104 108 C-103.67 107.34 -103.34 106.68 -103 106 C-100.55203184 104.43602034 -98.0449359 103.02471474 -95.5 101.625 C-91.8849098 99.27519137 -89.12821291 96.24909287 -86.25 93.0625 C-84.10928218 91.10017533 -81.99433049 89.63816537 -79.5625 88.0625 C-75.90724947 85.68510128 -73.0515773 83.12786673 -70 80 C-68.65805971 78.94262917 -67.30221482 77.90280848 -65.9375 76.875 C-57.51906707 70.4348988 -49.81676257 63.04127536 -42.5234375 55.36328125 C-41 54 -41 54 -39 54 C-38.60554688 53.11054687 -38.60554688 53.11054687 -38.203125 52.203125 C-36.60857832 49.28324083 -34.46783955 47.41515408 -32.046875 45.171875 C-29.65040445 42.62905511 -27.62472092 39.91093113 -25.55273438 37.10107422 C-24.12988492 35.17575308 -22.67882267 33.27779209 -21.2109375 31.38671875 C-13.46957611 21.32457187 -6.62015795 10.82782533 0 0 Z " fill="#81B856" transform="translate(339,30)"/>
<path d="M0 0 C0.33 0.66 0.66 1.32 1 2 C-1.01722592 5.98642265 -3.76654711 9.27504729 -6.625 12.6875 C-9.61503847 16.14480295 -9.61503847 16.14480295 -12 20 C-10.35 20 -8.7 20 -7 20 C-7 20.33 -7 20.66 -7 21 C-10.96 21.33 -14.92 21.66 -19 22 C-19 21.34 -19 20.68 -19 20 C-17.37273252 18.63895827 -15.69603137 17.33682791 -14 16.0625 C-8.14617896 11.41276375 -4.06506989 6.23155413 0 0 Z " fill="#314920" transform="translate(352,98)"/>
<path d="M0 0 C0.66 0.33 1.32 0.66 2 1 C1.38825004 5.15989972 -0.12978171 8.25956343 -2 12 C-2.309375 13.2375 -2.61875 14.475 -2.9375 15.75 C-4 19 -4 19 -6.125 20.4375 C-6.74375 20.623125 -7.3625 20.80875 -8 21 C-7.35307794 18.1679807 -6.48786311 15.57087146 -5.37109375 12.890625 C-5.05849609 12.13652344 -4.74589844 11.38242188 -4.42382812 10.60546875 C-4.09833984 9.82816406 -3.77285156 9.05085938 -3.4375 8.25 C-3.10814453 7.45722656 -2.77878906 6.66445313 -2.43945312 5.84765625 C-1.62880284 3.89739615 -0.81473514 1.94855716 0 0 Z " fill="#2B421C" transform="translate(339,56)"/>
<path d="M0 0 C2.31 0 4.62 0 7 0 C7 0.33 7 0.66 7 1 C5.02 1 3.04 1 1 1 C1.103125 1.9075 1.20625 2.815 1.3125 3.75 C1 7 1 7 -1.09375 9.25 C-4.83977211 11.50566923 -6.58430896 11.10418001 -10.8125 10.25 C-11.97394531 10.02828125 -13.13539063 9.8065625 -14.33203125 9.578125 C-15.21246094 9.38734375 -16.09289062 9.1965625 -17 9 C-13.27116893 7.90428426 -9.97156177 7.99782623 -6.12109375 8.16015625 C-3.69576058 8.15140845 -3.69576058 8.15140845 -1 6 C-0.26656572 2.93443402 -0.26656572 2.93443402 0 0 Z " fill="#3A5626" transform="translate(330,318)"/>
<path d="M0 0 C0 0.66 0 1.32 0 2 C-3.21451269 3.60725635 -6.43612536 3.05748185 -10 3 C-10 2.34 -10 1.68 -10 1 C-6.1496895 -1.56687367 -4.41430237 -0.83288724 0 0 Z " fill="#8BC15F" transform="translate(316,283)"/>
<path d="M0 0 C0.66 0.33 1.32 0.66 2 1 C1.01 2.485 1.01 2.485 0 4 C0.33 4.66 0.66 5.32 1 6 C-1.64 6 -4.28 6 -7 6 C-4.74259377 3.66475218 -2.7194239 1.81294927 0 0 Z " fill="#3F5E27" transform="translate(331,138)"/>
<path d="M0 0 C3.96 0 7.92 0 12 0 C12 0.33 12 0.66 12 1 C11.21753906 1.04898438 10.43507813 1.09796875 9.62890625 1.1484375 C8.61699219 1.22320312 7.60507812 1.29796875 6.5625 1.375 C5.55316406 1.44460937 4.54382813 1.51421875 3.50390625 1.5859375 C2.26447266 1.79089844 2.26447266 1.79089844 1 2 C0.67 2.66 0.34 3.32 0 4 C0 2.68 0 1.36 0 0 Z " fill="#638F43" transform="translate(255,243)"/>
<path d="M0 0 C0.66 0.33 1.32 0.66 2 1 C1.360625 1.598125 0.72125 2.19625 0.0625 2.8125 C-2.20310389 4.90810337 -2.20310389 4.90810337 -3 8 C-3.66 6.35 -4.32 4.7 -5 3 C-2.625 1.4375 -2.625 1.4375 0 0 Z " fill="#42632B" transform="translate(282,213)"/>
</svg>
